<?xml version="1.0" encoding="iso-8859-1"?>
<!-- Uploaded to: SVG Repo, www.svgrepo.com, Generator: SVG Repo Mixer Tools -->
<svg version="1.1" id="Layer_1" xmlns="http://www.w3.org/2000/svg" xmlns:xlink="http://www.w3.org/1999/xlink" 
	 viewBox="0 0 464 464" xml:space="preserve">
<rect x="136" y="80" style="fill:#FFF8EF;" width="32" height="48"/>
<g>
	<rect x="104" y="80" style="fill:#FF9900;" width="16" height="48"/>
	<rect x="184" y="80" style="fill:#FF9900;" width="16" height="48"/>
</g>
<g>
	<path style="fill:#FFF8EF;" d="M360,360c17.6,0,32,14.4,32,32s-14.4,32-32,32s-32-14.4-32-32S342.4,360,360,360z M384,392
		c0-13.6-10.4-24-24-24s-24,10.4-24,24s10.4,24,24,24S384,405.6,384,392z"/>
	<path style="fill:#FFF8EF;" d="M144,360c17.6,0,32,14.4,32,32s-14.4,32-32,32s-32-14.4-32-32S126.4,360,144,360z M168,392
		c0-13.6-11.2-24-24-24s-24,10.4-24,24s11.2,24,24,24S168,405.6,168,392z"/>
</g>
<g>
	<rect x="56" y="232" style="fill:#6CD3D8;" width="96" height="48"/>
	<rect x="200" y="232" style="fill:#6CD3D8;" width="104" height="48"/>
	<rect x="352" y="232" style="fill:#6CD3D8;" width="96" height="48"/>
</g>
<path style="fill:#42210B;" d="M464,376v10.4c0,7.2-5.6,13.6-13.6,13.6h-43.2c-4,22.4-23.2,40-47.2,40s-43.2-17.6-47.2-40H191.2
	c-4,22.4-23.2,40-47.2,40s-43.2-17.6-47.2-40h-44c-7.2,0-12.8-5.6-12.8-13.6V376v-16H28.8C12.8,360,0,347.2,0,331.2v-70.4
	c0-16,12.8-28.8,28.8-28.8H40v-0.8c0-30.4,24.8-55.2,55.2-55.2H120v-8H80c-4.8,0-8-4-8-8v-24c0-4,3.2-8,8-8h8V72c0-4.8,3.2-8,8-8h32
	V48c0-4.8,4-8,8-8h32c4,0,8,3.2,8,8v16h32c4,0,8,3.2,8,8v56h20.8c-3.2-4.8-4.8-10.4-4.8-16c0-17.6,14.4-32,32-32
	c5.6,0,11.2,1.6,16,4.8l22.4-22.4l-4-14.4H288c-4,0-8-3.2-8-8V24h16v8h32v16h-12.8l2.4,8H348l-4-13.6c0-2.4,0-4.8,1.6-7.2
	c1.6-1.6,4-3.2,6.4-3.2h36c11.2,0,20,8.8,20,20s-8.8,20-20,20h-4V56h4c2.4,0,4-1.6,4-4s-1.6-4-4-4h-25.6l9.6,34.4
	c4-1.6,8-2.4,12-2.4c17.6,0,32,14.4,32,32c0,5.6-1.6,11.2-4.8,16h4.8c4,0,8,4,8,8v24c0,4-4,8-8,8h-32v8h24.8
	c30.4,0,55.2,24.8,55.2,55.2V360V376z M448,384v-8h-42.4c0.8,2.4,1.6,5.6,2.4,8H448z M448,360v-32h-16v32H448z M448,312v-16H344
	c-4,0-8-4-8-8v-64c0-4,4-8,8-8h100.8c-6.4-14.4-20-24-36-24H95.2c-16,0-30.4,9.6-36,24H160c4,0,8,4,8,8v64c0,4-4,8-8,8H56v16h24
	c4.8,0,8,4,8,8v40h20c8.8-9.6,21.6-16,36-16s27.2,6.4,36,16h144.8c8.8-9.6,21.6-16,36-16s27.2,6.4,36,16H416v-40c0-4,4-8,8-8H448z
	 M448,280v-48h-96v48H448z M408,152v-8H208H96h-8v8H408z M400,112c0-8.8-7.2-16-16-16s-16,7.2-16,16s7.2,16,16,16S400,120.8,400,112
	z M392,392c0-17.6-14.4-32-32-32s-32,14.4-32,32s14.4,32,32,32S392,409.6,392,392z M368,176v-8H136v8H368z M356.8,85.6l-4-13.6
	h-29.6l9.6,28L356.8,85.6z M291.2,128H356c-3.2-4.8-4.8-10.4-4.8-16c0-1.6,0-4,0.8-5.6l-20.8,12l0,0c0,0.8-1.6,1.6-3.2,1.6h-32.8
	C294.4,123.2,292.8,125.6,291.2,128z M316.8,104l-8-24.8L291.2,96c1.6,2.4,2.4,5.6,3.2,8H316.8z M314.4,376H188.8
	c0.8,2.4,1.6,5.6,2.4,8h121.6C313.6,381.6,313.6,378.4,314.4,376z M280,112c0-8.8-7.2-16-16-16s-16,7.2-16,16s7.2,16,16,16
	S280,120.8,280,112z M200,128V80h-16v48H200z M176,392c0-17.6-14.4-32-32-32s-32,14.4-32,32s14.4,32,32,32S176,409.6,176,392z
	 M168,128V80h-32v48H168z M160,64v-8h-16v8H160z M152,280v-48H56v48H152z M120,128V80h-16v48H120z M99.2,376H56v8h40.8
	C96.8,381.6,97.6,378.4,99.2,376z M72,360v-32H56v32H72z M40,344v-96H28.8c-7.2,0-12.8,5.6-12.8,12.8v70.4c0,7.2,5.6,12.8,12.8,12.8
	H40z"/>
<path style="fill:#B37D4D;" d="M448,376v8h-40.8c-0.8-2.4-1.6-5.6-2.4-8H448z"/>
<rect x="432" y="328" style="fill:#EE5656;" width="16" height="32"/>
<path style="fill:#FFF8EF;" d="M344,296c-4,0-8-4-8-8v-64c0-4,4-8,8-8h100.8c-6.4-14.4-20-24-36-24H95.2c-16,0-30.4,9.6-36,24H160
	c4,0,8,4,8,8v64c0,4-4,8-8,8H56v16h24c4,0,8,4,8,8v40h20c8.8-9.6,21.6-16,36-16s27.2,6.4,36,16h144.8c8.8-9.6,21.6-16,36-16
	s27.2,6.4,36,16H416v-40c0-4,4-8,8-8h24v-16H344z M312,296H192c-4,0-8-4-8-8v-64c0-4,4-8,8-8h120c4,0,8,4,8,8v64
	C320,292,316,296,312,296z M376,328h-32v-16h32V328z"/>
<polygon style="fill:#B37D4D;" points="408,144 408,152 88,152 88,144 96,144 208,144 "/>
<g>
	<path style="fill:#42210B;" d="M360,368c13.6,0,24,10.4,24,24s-10.4,24-24,24s-24-10.4-24-24S346.4,368,360,368z M368,392
		c0-4-4-8-8-8s-8,4-8,8s4,8,8,8S368,396,368,392z"/>
	<rect x="344" y="312" style="fill:#42210B;" width="32" height="16"/>
	<path style="fill:#42210B;" d="M320,224v64c0,4-4,8-8,8H192c-4,0-8-4-8-8v-64c0-4,4-8,8-8h120C316,216,320,220,320,224z M304,280
		v-48H200v48H304z"/>
</g>
<path style="fill:#B37D4D;" d="M188.8,376h125.6c-0.8,2.4-1.6,5.6-2.4,8H191.2C191.2,381.6,190.4,378.4,188.8,376z"/>
<path style="fill:#42210B;" d="M144,368c12.8,0,24,10.4,24,24s-11.2,24-24,24s-24-10.4-24-24S131.2,368,144,368z M152,392
	c0-4-4-8-8-8s-8,4-8,8s4,8,8,8S152,396,152,392z"/>
<path style="fill:#B37D4D;" d="M56,376h43.2c-0.8,2.4-1.6,5.6-2.4,8H56V376z"/>
<rect x="56" y="328" style="fill:#EE5656;" width="16" height="32"/>
<path style="fill:#B37D4D;" d="M40,248v96H28.8c-7.2,0-12.8-5.6-12.8-12.8v-70.4c0-7.2,5.6-12.8,12.8-12.8H40z"/>
<path style="fill:#D9CDC1;" d="M88,336v24h20c8.8-9.6,21.6-16,36-16s27.2,6.4,36,16h144.8c8.8-9.6,21.6-16,36-16s27.2,6.4,36,16H416
	v-24H88z"/>
</svg>